<?xml version="1.0" encoding="utf-8"?>
<!-- Generator: Adobe Illustrator 19.0.0, SVG Export Plug-In . SVG Version: 6.00 Build 0)  -->
<svg version="1.1" id="Layer_1" xmlns="http://www.w3.org/2000/svg" xmlns:xlink="http://www.w3.org/1999/xlink" x="0px" y="0px"
	 viewBox="0 0 32 32" xml:space="preserve">
<path id="add" d="M28,16c0,0.5-0.2,1-0.6,1.4C27,17.8,26.5,18,26,18h-8v8c0,1.1-0.9,2-2,2s-2-0.9-2-2v-8H6c-1.1,0-2-0.9-2-2
		c0-0.5,0.2-1,0.6-1.4C5,14.2,5.5,14,6,14h8V6c0-1.1,0.9-2,2-2c0.5,0,1,0.2,1.4,0.6C17.8,5,18,5.5,18,6v8h8C27.1,14,28,14.9,28,16z"
		/>

<path id="confirm" d="M12,26c-0.1,0-0.1,0-0.2,0c-0.6-0.1-1.1-0.3-1.4-0.8l-6-8c-0.7-0.9-0.5-2.1,0.4-2.8
	c0.9-0.7,2.1-0.5,2.8,0.4l4.7,6.2l11.4-10.5c0.8-0.7,2.1-0.7,2.8,0.1c0.7,0.8,0.7,2.1-0.1,2.8l-13,12C13,25.8,12.5,26,12,26z"/>

<path id="cancel" d="M24.5,7.5c0.4,0.4,0.6,0.9,0.6,1.4c0,0.5-0.2,1-0.6,1.4L18.8,16l5.7,5.7c0.8,0.8,0.8,2.1,0,2.8
		c-0.8,0.8-2.1,0.8-2.8,0L16,18.8l-5.7,5.7c-0.8,0.8-2.1,0.8-2.8,0c-0.4-0.4-0.6-0.9-0.6-1.4c0-0.5,0.2-1,0.6-1.4l5.7-5.7l-5.7-5.7
		c-0.8-0.8-0.8-2.1,0-2.8c0.4-0.4,0.9-0.6,1.4-0.6c0.5,0,1,0.2,1.4,0.6l5.7,5.7l5.7-5.7C22.4,6.7,23.7,6.7,24.5,7.5z"/>

<path id="settings" d="M20,4h-8C8.7,4,5.7,5.3,3.5,7.5C1.3,9.7,0,12.7,0,16c0,6.6,5.4,12,12,12h8c3.3,0,6.3-1.4,8.5-3.5
	c2.2-2.2,3.5-5.2,3.5-8.5C32,9.4,26.6,4,20,4z M25.7,21.6C24.2,23.1,22.2,24,20,24h-8c-4.4,0-8-3.6-8-8c0-2.2,0.9-4.2,2.3-5.7
	C7.8,8.9,9.8,8,12,8h8c4.4,0,8,3.6,8,8C28,18.2,27.1,20.2,25.7,21.6z M18,16c0,3.3-2.7,6-6,6s-6-2.7-6-6s2.7-6,6-6S18,12.7,18,16z"
	/>
</svg>
